<svg version="1.1" viewBox="0.0 0.0 512.0 512.0" fill="none" stroke="none" stroke-linecap="square" stroke-miterlimit="10" xmlns:xlink="http://www.w3.org/1999/xlink" xmlns="http://www.w3.org/2000/svg"><clipPath id="p.0"><path d="m0 0l512.0 0l0 512.0l-512.0 0l0 -512.0z" clip-rule="nonzero"/></clipPath><g clip-path="url(#p.0)"><path fill="#000000" fill-opacity="0.0" d="m0 0l512.0 0l0 512.0l-512.0 0z" fill-rule="evenodd"/><path fill="#000000" d="m10.07874 256.0l0 0c0 -135.81856 110.1027 -245.92126 245.92126 -245.92126l0 0c65.22238 0 127.77341 25.909489 173.89258 72.02866c46.1192 46.119186 72.02869 108.67023 72.02869 173.8926l0 0c0 135.81857 -110.10269 245.92126 -245.92126 245.92126l0 0c-135.81856 0 -245.92126 -110.10269 -245.92126 -245.92126z" fill-rule="evenodd"/><path fill="#000000" fill-opacity="0.0" d="m23.212599 24.740158l465.57483 0l0 462.5197l-465.57483 0z" fill-rule="evenodd"/><path fill="#ffffff" d="m84.009796 351.99997l0 -186.65623l78.125 0q20.53125 0 37.59375 6.796875q17.078125 6.796875 29.46875 19.328125q12.40625 12.53125 19.0625 29.609375q6.671875 17.0625 6.671875 37.593735q0 20.53125 -6.671875 37.734375q-6.65625 17.1875 -19.0625 29.59375q-12.390625 12.40625 -29.46875 19.203125q-17.0625 6.796875 -37.59375 6.796875l-78.125 0zm45.328125 -30.9375l-6.125 -9.0625l37.59375 0q11.203125 0 20.0 -3.859375q8.796875 -3.875 15.0625 -10.796875q6.265625 -6.9375 9.734375 -16.796875q3.46875 -9.875 3.46875 -21.875q0 -11.999985 -3.46875 -21.85936q-3.46875 -9.875 -9.734375 -16.796875q-6.265625 -6.9375 -15.0625 -10.796875q-8.796875 -3.875 -20.0 -3.875l-38.40625 0l6.9375 -8.53125l0 124.249985zm245.3273 33.609375q-21.0625 0 -38.796875 -7.0625q-17.734375 -7.078125 -30.8125 -20.0q-13.0625 -12.9375 -20.125 -30.671875q-7.0625 -17.734375 -7.0625 -39.0625q0 -20.79686 7.46875 -38.39061q7.46875 -17.609375 20.65625 -30.546875q13.203125 -12.9375 31.203125 -20.125q18.0 -7.203125 39.328125 -7.203125q13.34375 0 26.140625 3.46875q12.796875 3.46875 23.859375 10.265625q11.0625 6.796875 19.0625 16.125l-27.734375 31.734375q-5.59375 -5.859375 -11.859375 -10.265625q-6.265625 -4.40625 -13.734375 -6.796875q-7.46875 -2.40625 -16.0 -2.40625q-10.65625 0 -20.125 3.875q-9.46875 3.859375 -16.546875 10.9375q-7.0625 7.0625 -11.0625 17.203125q-4.0 10.125 -4.0 22.656235q0 12.265625 4.0 22.265625q4.0 10.0 11.203125 17.203125q7.203125 7.1875 17.46875 10.921875q10.265625 3.734375 22.796875 3.734375q8.53125 0 16.265625 -2.390625q7.734375 -2.40625 14.265625 -6.53125q6.53125 -4.140625 11.609375 -9.46875l21.859375 34.65625q-6.671875 7.46875 -17.734375 13.34375q-11.0625 5.859375 -24.53125 9.203125q-13.46875 3.328125 -27.0625 3.328125z" fill-rule="nonzero"/></g></svg>