<svg version="1.1" viewBox="0.0 0.0 512.0 512.0" fill="none" stroke="none" stroke-linecap="square" stroke-miterlimit="10" xmlns:xlink="http://www.w3.org/1999/xlink" xmlns="http://www.w3.org/2000/svg"><clipPath id="p.0"><path d="m0 0l512.0 0l0 512.0l-512.0 0l0 -512.0z" clip-rule="nonzero"/></clipPath><g clip-path="url(#p.0)"><path fill="#000000" fill-opacity="0.0" d="m0 0l512.0 0l0 512.0l-512.0 0z" fill-rule="evenodd"/><path fill="#000000" d="m10.07874 256.0l0 0c0 -135.81856 110.1027 -245.92126 245.92126 -245.92126l0 0c65.22238 0 127.77341 25.909489 173.89258 72.02866c46.1192 46.119186 72.02869 108.67023 72.02869 173.8926l0 0c0 135.81857 -110.10269 245.92126 -245.92126 245.92126l0 0c-135.81856 0 -245.92126 -110.10269 -245.92126 -245.92126z" fill-rule="evenodd"/><path fill="#000000" fill-opacity="0.0" d="m6.8267717 10.07874l495.0866 0l0 491.84253l-495.0866 0z" fill-rule="evenodd"/><path fill="#ffffff" d="m90.23591 352.0l0 -186.65625l73.07812 0q19.984375 0 36.109375 6.671875q16.140625 6.65625 27.609375 19.1875q11.46875 12.53125 17.59375 29.609375q6.140625 17.0625 6.140625 37.859375q0 20.796875 -6.140625 38.0q-6.125 17.203125 -17.453125 29.609375q-11.328125 12.390625 -27.609375 19.0625q-16.265625 6.65625 -36.25 6.65625l-73.07812 0zm28.8125 -24.796875l-0.8125 -2.9375l43.734367 0q14.140625 0 25.203125 -4.53125q11.0625 -4.53125 18.65625 -12.921875q7.609375 -8.40625 11.609375 -20.671875q4.0 -12.265625 4.0 -27.46875q0 -15.203125 -4.0 -27.328125q-4.0 -12.140625 -11.734375 -20.671875q-7.734375 -8.53125 -18.671875 -13.0625q-10.921875 -4.53125 -25.0625 -4.53125l-44.531242 0l1.609375 -2.40625l0 136.53125zm246.38068 27.46875q-19.46875 0 -35.734375 -6.9375q-16.265625 -6.9375 -28.265625 -19.859375q-12.0 -12.9375 -18.53125 -30.53125q-6.53125 -17.609375 -6.53125 -38.671875q0 -20.0 7.0625 -37.203125q7.078125 -17.203125 19.609375 -30.265625q12.53125 -13.0625 29.0625 -20.265625q16.53125 -7.203125 35.734375 -7.203125q13.59375 0 26.53125 4.140625q12.9375 4.125 23.46875 11.46875q10.53125 7.328125 17.1875 16.65625l-19.1875 20.0q-7.734375 -7.734375 -15.609375 -12.921875q-7.859375 -5.203125 -16.0 -7.859375q-8.125 -2.671875 -16.390625 -2.671875q-13.0625 0 -24.40625 4.9375q-11.328125 4.921875 -19.734375 13.71875q-8.390625 8.796875 -13.203125 20.9375q-4.796875 12.125 -4.796875 26.53125q0 15.203125 4.671875 27.609375q4.671875 12.390625 13.203125 21.1875q8.53125 8.796875 20.390625 13.46875q11.875 4.65625 26.265625 4.65625q8.8125 0 17.34375 -2.390625q8.53125 -2.40625 15.984375 -6.9375q7.46875 -4.53125 13.609375 -10.65625l14.40625 23.453125q-6.140625 7.203125 -16.671875 13.078125q-10.53125 5.859375 -23.46875 9.203125q-12.9375 3.328125 -26.0 3.328125z" fill-rule="nonzero"/></g></svg>